PathFileType	4	(X/Y/Z)	D:\TRACE\v60_Jaco2_6-2-23\JustBodyDRS_Motion3_3-v60.trc
DataRate	CameraRate	NumFrames	NumMarkers	Units	OrigDataRate	OrigDataStartFrame	OrigNumFrames
100.00	100.00	      32	9	mm	100.00	1	      7000
Frame#	Time	front left toe			Front right toe			aft left toe			aft right toe			Arm			FL body			FR body			AL Body			AR Body			
		X1	Y1	Z1	X2	Y2	Z2	X3	Y3	Z3	X4	Y4	Z4	X5	Y5	Z5	X6	Y6	Z6	X7	Y7	Z7	X8	Y8	Z8	X9	Y9	Z9	

1	0.000	-216.43579	39.14684	-74.32201	185.52742	37.72082	-64.65170	-233.15431	-70.50202	554.84180	177.35428	-67.71141	525.67621	-4.27198	1227.38513	27.31557	-90.13089	622.64594	-189.75815	68.28501	621.85205	-188.08698	-93.32607	458.61511	740.34967	62.49051	448.14978	739.07849	
2	0.010	-216.40768	39.14421	-74.29411	185.54724	37.67038	-64.74224	-233.15926	-70.55856	554.84698	177.33621	-67.69662	525.69354	-4.30477	1227.39978	27.33753	-90.12744	622.64313	-189.74750	68.27580	621.86694	-188.09030	-93.25976	458.62704	740.38391	62.52153	448.13510	739.06610	
3	0.020	-216.42589	39.13435	-74.29680	185.51407	37.67590	-64.73620	-233.18033	-70.55691	554.81415	177.34366	-67.74144	525.66089	-4.27967	1227.38721	27.32395	-90.12249	622.66498	-189.76207	68.29142	621.84265	-188.08017	-93.25441	458.68533	740.36945	62.53149	448.14288	739.08606	
4	0.030	-216.39490	39.10980	-74.28551	185.53357	37.64100	-64.69044	-233.19229	-70.54546	554.84680	177.34764	-67.71729	525.71753	-4.25929	1227.38489	27.34158	-90.13654	622.62225	-189.75621	68.32117	621.84113	-188.08560	-93.25406	458.65274	740.35608	62.50836	448.15042	739.06543	
5	0.040	-216.41904	39.12190	-74.28256	185.53754	37.68505	-64.74472	-233.20445	-70.53386	554.83936	177.36090	-67.70805	525.67371	-4.25396	1227.39465	27.31967	-90.13364	622.64819	-189.75113	68.31231	621.82025	-188.09709	-93.25033	458.67203	740.35284	62.53805	448.15518	739.06439	
6	0.050	-216.39622	39.13955	-74.28076	185.55211	37.68403	-64.77091	-233.22781	-70.50329	554.82196	177.34624	-67.68566	525.68140	-4.20488	1227.41113	27.34119	-90.11780	622.62091	-189.74298	68.30946	621.85974	-188.07651	-93.24226	458.68518	740.33466	62.55171	448.13361	739.08917	
7	0.060	-216.41989	39.13794	-74.29203	185.54922	37.68045	-64.76215	-233.16451	-70.56086	554.84644	177.33214	-67.69466	525.65503	-4.25877	1227.40002	27.32627	-90.14129	622.63861	-189.72350	68.26793	621.86060	-188.10481	-93.26632	458.67014	740.35968	62.52724	448.12866	739.09222	
8	0.070	-216.41457	39.13241	-74.28428	185.52692	37.65460	-64.72982	-233.23761	-70.49545	554.84772	177.34364	-67.74609	525.67108	-4.23022	1227.38623	27.33291	-90.11943	622.66162	-189.76022	68.28766	621.80438	-188.10561	-93.27640	458.64200	740.39221	62.48151	448.12915	739.08142	
9	0.080	-216.39381	39.12960	-74.28338	185.55232	37.67097	-64.73101	-233.14404	-70.54333	554.82739	177.34303	-67.71008	525.66321	-4.26686	1227.38367	27.33509	-90.12489	622.61176	-189.72618	68.30948	621.85004	-188.08244	-93.31973	458.63983	740.36096	62.53461	448.13727	739.07849	
10	0.090	-216.40887	39.11295	-74.29223	185.53851	37.69944	-64.72809	-233.17329	-70.54241	554.83246	177.32190	-67.71197	525.66467	-4.30561	1227.36768	27.31683	-90.11762	622.64490	-189.73950	68.27041	621.85046	-188.08369	-93.28869	458.66669	740.39642	62.49706	448.12543	739.04968	
11	0.100	-216.44025	39.12265	-74.29876	185.48840	37.70383	-64.73393	-233.16089	-70.51234	554.84564	177.35094	-67.66978	525.67676	-4.25532	1227.38989	27.32455	-90.11308	622.61700	-189.73218	68.27409	621.86414	-188.08684	-93.24888	458.66818	740.37921	62.56421	448.13629	739.08191	
12	0.110	-216.44672	39.15833	-74.31303	185.48798	37.70751	-64.76498	-233.13144	-70.54994	554.83325	177.35542	-67.72159	525.65601	-4.25800	1227.39490	27.34228	-90.11633	622.63538	-189.73399	68.29069	621.85724	-188.07008	-93.22720	458.68155	740.36444	62.53393	448.11880	739.08899	
13	0.120	-216.45679	39.16341	-74.32088	185.47496	37.71701	-64.71644	-233.21558	-70.51564	554.76898	177.33549	-67.72576	525.63898	-4.27751	1227.37268	27.33046	-90.08968	622.61298	-189.75922	68.30472	621.85455	-188.06844	-93.24575	458.65567	740.40527	62.42559	448.12979	739.10272	
14	0.130	-216.45383	39.13434	-74.32793	185.49791	37.68185	-64.73313	-233.17406	-70.53251	554.84210	177.29288	-67.68984	525.67694	-4.27922	1227.39905	27.32842	-90.12991	622.63965	-189.73592	68.33485	621.84546	-188.09161	-93.29248	458.63403	740.33746	62.53073	448.13770	739.07635	
15	0.140	-216.43581	39.14003	-74.28863	185.45198	37.69088	-64.76082	-233.17200	-70.53350	554.83862	177.32661	-67.70978	525.65509	-4.24719	1227.38855	27.35817	-90.14410	622.64606	-189.72858	68.27793	621.81439	-188.04305	-93.25573	458.68323	740.39270	62.51754	448.13446	739.09424	
16	0.150	-216.38672	39.09566	-74.27892	185.49657	37.71000	-64.76187	-233.14809	-70.57535	554.81818	177.34700	-67.69745	525.68750	-4.27701	1227.40649	27.34422	-90.12175	622.63885	-189.75099	68.29601	621.84436	-188.05969	-93.26753	458.64285	740.34625	62.55218	448.14319	739.06604	
17	0.160	-216.46237	39.14053	-74.27104	185.54230	37.72642	-64.74800	-233.15410	-70.55355	554.84143	177.37726	-67.70270	525.66992	-4.25427	1227.39514	27.33007	-90.08627	622.61243	-189.74940	68.28765	621.84210	-188.09651	-93.27469	458.66248	740.36426	62.52749	448.14145	739.08759	
18	0.170	-216.41362	39.15547	-74.30943	185.48596	37.67575	-64.72610	-233.16122	-70.51669	554.82782	177.35536	-67.70020	525.70117	-4.23829	1227.36658	27.31106	-90.10870	622.63727	-189.73488	68.31094	621.82312	-188.08765	-93.26350	458.65942	740.34546	62.52577	448.12256	739.11169	
19	0.180	-216.41653	39.12977	-74.30090	185.53268	37.66383	-64.72963	-233.14818	-70.56177	554.82349	177.31007	-67.68834	525.67169	-4.30816	1227.38635	27.33357	-90.11293	622.63989	-189.77266	68.31631	621.83972	-188.11308	-93.30824	458.64261	740.36914	62.47468	448.09039	739.07159	
20	0.190	-216.42142	39.13350	-74.29305	185.49507	37.65148	-64.76736	-233.20921	-70.55266	554.81317	177.34875	-67.72308	525.65356	-4.29043	1227.36487	27.33416	-90.09399	622.63159	-189.74757	68.33329	621.84198	-188.09059	-93.31473	458.62625	740.35730	62.57433	448.13379	739.08435	
21	0.200	-216.42195	39.10041	-74.28876	185.50067	37.69666	-64.72072	-233.24561	-70.54650	554.81439	177.33206	-67.75748	525.66132	-4.28433	1227.39111	27.34017	-90.12557	622.62531	-189.74561	68.28320	621.84131	-188.07974	-93.31725	458.63959	740.37421	62.42969	448.11258	739.10968	
22	0.210	-216.42966	39.12259	-74.28205	185.49355	37.70168	-64.81911	-233.18068	-70.52887	554.79730	177.34438	-67.69190	525.65948	-4.23277	1227.38635	27.32331	-90.11374	622.63770	-189.74203	68.29742	621.81836	-188.09859	-93.22323	458.67215	740.38330	62.53521	448.13113	739.04468	
23	0.220	-216.38899	39.12215	-74.26822	185.48747	37.70214	-64.72307	-233.18069	-70.53698	554.83929	177.35904	-67.69053	525.69312	-4.28224	1227.39355	27.35423	-90.12632	622.63507	-189.76012	68.26504	621.81964	-188.11009	-93.29968	458.66312	740.37994	62.49496	448.13120	739.09369	
24	0.230	-216.42857	39.12852	-74.30516	185.54128	37.65385	-64.73592	-233.15768	-70.54782	554.82532	177.35182	-67.72963	525.68414	-4.26776	1227.37769	27.31379	-90.10779	622.63550	-189.74716	68.30215	621.86389	-188.10028	-93.30242	458.59372	740.40466	62.51038	448.14380	739.10046	
25	0.240	-216.42079	39.11476	-74.31027	185.55380	37.69214	-64.64996	-233.17653	-70.59357	554.84717	177.34586	-67.71944	525.66479	-4.32214	1227.39050	27.33089	-90.09708	622.63916	-189.75153	68.33227	621.84216	-188.08336	-93.31663	458.63086	740.36560	62.44315	448.13190	739.06586	
26	0.250	-216.39697	39.10561	-74.29015	185.52596	37.68186	-64.71920	-233.18199	-70.52658	554.84088	177.32962	-67.70819	525.65912	-4.28518	1227.36401	27.31127	-90.12317	622.65692	-189.73270	68.31909	621.84796	-188.08003	-93.30163	458.65631	740.39081	62.53941	448.13757	739.05542	
27	0.260	-216.42349	39.14091	-74.32121	185.51341	37.72152	-64.75032	-233.22859	-70.35573	554.69897	177.33368	-67.68563	525.68475	-4.26381	1227.39124	27.33996	-90.09039	622.60529	-189.71727	68.26907	621.85516	-188.09586	-93.29278	458.64069	740.36389	62.51168	448.16641	739.11096	
28	0.270	-216.40616	39.13287	-74.30092	185.47491	37.72499	-64.80195	-233.21846	-70.49564	554.78326	177.37013	-67.69871	525.69122	-4.22984	1227.37585	27.34168	-90.08692	622.63470	-189.74165	68.29332	621.87878	-188.10452	-93.24636	458.72852	740.33258	62.55406	448.12811	739.10718	
29	0.280	-216.40027	39.11223	-74.26486	185.44052	37.73460	-64.73680	-233.16469	-70.49081	554.81464	177.35507	-67.70955	525.69293	-4.26689	1227.37573	27.33569	-90.11298	622.62659	-189.72719	68.27110	621.85522	-188.12744	-93.27698	458.66446	740.38336	62.46409	448.13681	739.09424	
30	0.290	-216.41925	39.12217	-74.31696	185.49103	37.68901	-64.78558	-233.14670	-70.56847	554.82007	177.35844	-67.70534	525.66412	-4.27795	1227.36914	27.32165	-90.09666	622.62201	-189.72743	68.27415	621.83411	-188.09537	-93.24949	458.64026	740.35858	62.56792	448.15250	739.07788	
31	0.300	-216.41974	39.09297	-74.27577	185.53615	37.70295	-64.71363	-233.19020	-70.52799	554.81738	177.35408	-67.67528	525.66772	-4.28977	1227.40454	27.32814	-90.13245	622.61584	-189.73921	68.28502	621.88123	-188.11734	-93.27662	458.68134	740.39465	62.48419	448.13419	739.10455	
32	0.310	-216.42871	39.12810	-74.29189	185.53520	37.68890	-64.71978	-233.23244	-70.51910	554.82269	177.32317	-67.70736	525.66119	-4.28605	1227.39917	27.31027	-90.14241	622.62567	-189.75392	68.27679	621.85675	-188.07614	-93.30376	458.64737	740.36694	62.55215	448.13516	739.09473	
